HIERARCHY
ROOT Hips
{
	OFFSET	0.00	0.00	0.00
	CHANNELS 6 Xposition Yposition Zposition Zrotation Xrotation Yrotation
	JOINT Spine
	{
		OFFSET	 0.00	0.01	 0.00
		CHANNELS 3 Zrotation Xrotation Yrotation
		JOINT Spine1
		{
			OFFSET	 0.00	 2.45913012437421	 0.00
			CHANNELS 3 Zrotation Xrotation Yrotation
            JOINT Neck
            {
                OFFSET	 0.00	 2.48462964506057	 0.00
                CHANNELS 3 Zrotation Xrotation Yrotation
                JOINT Head
                {
                    OFFSET	 0.00	 0.927524780924562	 0.00
                    CHANNELS 3 Zrotation Xrotation Yrotation
                    End Site 
                    {
                        OFFSET	 0.00	 1.14999962169752	 0.00
                    }
                }
            }
			JOINT LeftShoulder
			{
				OFFSET	 0.00	 2.48462964506057	 0.00
				CHANNELS 3 Zrotation Xrotation Yrotation
				JOINT LeftUpArm
				{
					OFFSET	 0.00	 1.24881979654096	 0.00
					CHANNELS 3 Zrotation Xrotation Yrotation
					JOINT LeftForeArm
					{
						OFFSET	 0.00	2.59758046908119	 0.00
						CHANNELS 3 Zrotation Xrotation Yrotation
						JOINT LeftHand
						{
							OFFSET	 0.00	2.45542024364365	 0.00
							CHANNELS 3 Zrotation Xrotation Yrotation
							JOINT LeftHandThumb 
							{
								OFFSET	 0.00	0.00	 0.00
								CHANNELS 3 Zrotation Xrotation Yrotation
								End Site
								{
									OFFSET	 0.00	0.00	1.00000003353624
								}
							}
							JOINT L_Wrist_End 
							{
								OFFSET	 0.00	0.99999967115358	 0.00
								CHANNELS 3 Zrotation Xrotation Yrotation
								End Site 
								{
									OFFSET	 0.00	 0.00	 0.00
								}
							}
						}
					}
				}
			}
			JOINT RightShoulder
			{
				OFFSET	 0.00	 2.48462964506057	 0.00
				CHANNELS 3 Zrotation Xrotation Yrotation
				JOINT RightUpArm
				{
					OFFSET	 0.00	 1.24881979654096	 0.00
					CHANNELS 3 Zrotation Xrotation Yrotation
					JOINT RightForeArm
					{
						OFFSET	 0.00	2.59758046908119	 0.00
						CHANNELS 3 Zrotation Xrotation Yrotation
						JOINT RightHand
						{
							OFFSET	 0.00	2.45542024364365	 0.00
							CHANNELS 3 Zrotation Xrotation Yrotation
							JOINT RightHandThumb 
							{
								OFFSET	 0.00	0.00	 0.00
								CHANNELS 3 Zrotation Xrotation Yrotation
								End Site
								{
									OFFSET	 0.00	0.00	1.00000003353624
								}
							}
							JOINT R_Wrist_End 
							{
								OFFSET	 0.00	0.99999967115358	 0.00
								CHANNELS 3 Zrotation Xrotation Yrotation
								End Site 
								{
									OFFSET	 0.00	 0.00	 0.00
								}
							}
						}
					}
				}
			}
		}
	}
	JOINT LeftUpLeg
	{
		OFFSET	 1.2719394002717	 0.00	 0.00
		CHANNELS 3 Zrotation Xrotation Yrotation
		JOINT LeftLowLeg
		{
			OFFSET	 0.00	-4.3429100912261	 0.00
			CHANNELS 3 Zrotation Xrotation Yrotation
			JOINT LeftFoot
			{
				OFFSET	 0.00	-4.48767017425826	 0.00
				CHANNELS 3 Zrotation Xrotation Yrotation
				JOINT LeftToeBase
                {
                    OFFSET	 0.00	0.00	 1.51507020887566
                    CHANNELS 3 Zrotation Xrotation Yrotation
                    End Site 
                    {
                        OFFSET	 0.00	0.00	 0.75000010571191
                    }
                }
			}
		}
	}
	JOINT RightUpLeg
	{
		OFFSET	 -1.2719393604653	 0.00	 0.00
		CHANNELS 3 Zrotation Xrotation Yrotation
		JOINT RightLowLeg
		{
			OFFSET	 0.00	-4.3429100912261	 0.00
			CHANNELS 3 Zrotation Xrotation Yrotation
			JOINT RightFoot
			{
				OFFSET	 0.00	-4.48767017425826	 0.00
				CHANNELS 3 Zrotation Xrotation Yrotation
				JOINT RightToeBase
                {
                    OFFSET	 0.00	0.00	 1.51507020887566
                    CHANNELS 3 Zrotation Xrotation Yrotation
                    End Site 
                    {
                        OFFSET	 0.00	0.00	 0.749999965609858
                    }
                }   
			}
		}
	}
}
MOTION 
Frames:	18 
Frame Time: 0.02 
  -0.8654530334472657 5.5686102294921875 10.553399658203125 -103.563 84.7661 -275.91 5.03058 -9.02244 -20.41 -7.57882 5.25811 19.3897 45.4337 44.2991 -144.942 90.5654 -3.61142 67.7655 -107.6175 -2.40324 -6.33969 43.4446 15.0113 -34.8825 0.0 30.8861 0.0 50.8348 11.5345 13.9316 0.0 0.0 0.0 0.0 0.0 0.0 107.7506 -6.10596 1.35118 -47.794 29.9735 40.0191 0.0 11.3372 0.0 -38.4204 14.8756 -8.24925 0.0 0.0 0.0 0.0 0.0 0.0 4.73901 8.79121 22.9389 0.0 4.92916 0.0 -10.2695 6.60001 12.1237 0.0 -9.42186 0.0 5.26331 -5.20901 2.02564 0.0 14.9532 0.0 24.4806 8.53223 -32.1839 0.0 -12.47167 0.0 
  -0.9429499816894531 5.54760009765625 10.5625 -106.084 84.5872 -273.957 5.07504 -9.09064 -20.5714 -7.46153 4.65712 19.0886 45.554 43.5102 -145.364 90.7047 -2.96529 67.9597 -107.4338 -2.17632 -5.79737 43.4735 15.8217 -35.0 0.0 29.0316 0.0 49.9098 10.9741 13.625 0.0 0.0 0.0 0.0 0.0 0.0 107.8024 -6.18506 1.3754 -46.9036 29.5251 40.8603 0.0 10.7064 0.0 -38.2277 13.2583 -8.49194 0.0 0.0 0.0 0.0 0.0 0.0 5.27551 8.85709 23.354 0.0 5.11388 0.0 -10.7914 6.83418 12.2127 0.0 -9.70579 0.0 5.89023 -4.71159 3.37972 0.0 14.0594 0.0 24.8849 8.44614 -32.8066 0.0 -12.4339695 0.0 
  -1.0233200073242188 5.52041015625 10.5702001953125 -107.397 84.4323 -273.12 5.03604 -9.1967 -20.9431 -7.31198 4.30943 18.6375 45.7215 42.5053 -146.014 90.6906 -2.16561 68.5555 -107.24 -2.22469 -5.58842 43.1356 16.5262 -34.9302 0.0 27.6357 0.0 49.8747 10.965 13.5788 0.0 0.0 0.0 0.0 0.0 0.0 107.655 -6.29029 1.53589 -45.5616 29.0638 41.3815 0.0 11.4866 0.0 -38.3951 12.2896 -8.20722 0.0 0.0 0.0 0.0 0.0 0.0 5.78068 9.11412 23.7701 0.0 5.17817 0.0 -11.3726 7.1206 12.1583 0.0 -9.96487 0.0 6.38892 -4.12089 3.75711 0.0 13.2697 0.0 24.8566 8.64772 -32.8261 0.0 -12.30531 0.0 
  -1.1052999877929688 5.4966497802734375 10.57550048828125 -108.89 84.3211 -272.291 4.86563 -9.56023 -21.2685 -7.01943 4.27259 18.3712 45.982 42.1912 -146.376 90.5592 -1.89216 68.7503 -107.0064 -1.59467 -5.37916 42.2948 16.4739 -34.4223 0.0 26.9136 0.0 50.2712 10.8625 12.7071 0.0 0.0 0.0 0.0 0.0 0.0 107.360596 -6.46221 1.76478 -44.2899 28.7673 41.1662 0.0 12.378 0.0 -38.5816 12.4245 -8.48988 0.0 0.0 0.0 0.0 0.0 0.0 6.22686 9.41493 24.461 0.0 5.19087 0.0 -11.9751 7.44987 11.9663 0.0 -10.23259 0.0 6.83357 -3.68478 4.0266 0.0 12.7046 0.0 24.537 9.03255 -32.441 0.0 -12.1677 0.0 
  -1.1896299743652343 5.474580078125 10.5775 -110.141 84.2515 -271.823 4.73798 -10.1263 -21.7744 -7.02272 4.58537 17.9434 46.0278 42.2031 -146.267 90.41 -1.64864 68.9081 -106.7284 -1.30163 -5.45053 41.3489 16.1066 -33.9355 0.0 26.5462 0.0 50.1662 11.0368 12.9305 0.0 0.0 0.0 0.0 0.0 0.0 107.5084 -5.87617 1.84782 -43.8859 28.1768 39.5317 0.0 12.6743 0.0 -38.7481 13.0795 -8.21663 0.0 0.0 0.0 0.0 0.0 0.0 6.62752 9.77065 25.1328 0.0 5.22098 0.0 -12.6 7.75356 11.8321 0.0 -10.580191 0.0 7.28625 -3.20457 4.79246 0.0 12.1079 0.0 24.3611 9.13644 -32.3688 0.0 -12.04686 0.0 
  -1.2756800079345703 5.455419921875 10.575999755859375 -110.639 84.1966 -272.272 4.58279 -10.4572 -22.1516 -6.95626 4.80244 17.6457 46.6478 41.8066 -146.906 90.4832 -1.19103 69.1149 -106.7101 -1.16963 -5.38325 40.8231 15.7763 -33.6019 0.0 26.2799 0.0 49.7901 11.0992 13.1878 0.0 0.0 0.0 0.0 0.0 0.0 107.5635 -5.92244 1.86635 -43.7162 28.0798 37.7853 0.0 12.6288 0.0 -38.9145 13.4242 -8.14256 0.0 0.0 0.0 0.0 0.0 0.0 7.00805 10.2053 25.7904 0.0 5.35223 0.0 -13.3302 7.91104 11.7873 0.0 -10.866859 0.0 7.74601 -2.72546 5.64273 0.0 11.6171 0.0 23.9719 9.3029 -32.3076 0.0 -12.11641 0.0 
  -1.3621000671386718 5.440089721679687 10.572099609375 -110.579 84.1249 -273.442 4.49557 -10.6528 -22.3989 -6.96437 5.04638 17.4574 47.1049 41.5642 -147.3 90.4988 -0.827738 69.2431 -106.770905 -1.27727 -5.47128 40.497 15.692 -33.3297 0.0 26.0886 0.0 49.2414 11.4615 13.7263 0.0 0.0 0.0 0.0 0.0 0.0 107.618 -6.10418 1.93948 -43.5334 28.0471 36.5275 0.0 12.6596 0.0 -38.3275 13.5005 -8.68913 0.0 0.0 0.0 0.0 0.0 0.0 7.39437 10.6775 26.324 0.0 5.61609 0.0 -14.1205 7.92404 11.9649 0.0 -11.13847 0.0 8.22869 -2.22979 6.43416 0.0 11.2062 0.0 23.453 9.47291 -32.101 0.0 -12.09183 0.0 
  -1.4479600524902343 5.428930053710937 10.56699951171875 -109.794 84.0521 -275.503 4.44004 -10.7826 -22.5929 -7.01294 5.32696 17.3167 47.5025 41.4051 -147.585 90.4055 -0.561346 69.2419 -106.8242 -1.30471 -5.64297 40.2165 15.462 -32.7715 0.0 25.8974 0.0 48.9715 12.1794 14.3779 0.0 0.0 0.0 0.0 0.0 0.0 107.7249 -5.99527 2.03586 -43.3536 27.9529 35.7214 0.0 12.5136 0.0 -37.4037 13.9974 -9.2706 0.0 0.0 0.0 0.0 0.0 0.0 7.79494 11.1424 26.6888 0.0 6.16173 0.0 -14.9731 7.78006 12.3369 0.0 -11.43925 0.0 8.69292 -1.67158 7.183 0.0 10.8123 0.0 22.8482 9.7096 -31.7856 0.0 -12.09502 0.0 
  -1.5325700378417968 5.422109985351563 10.560999755859376 -108.326 83.9932 -278.359 4.38168 -10.6868 -22.6535 -7.00363 5.50885 17.3023 47.7823 41.1989 -147.857 90.1763 -0.381727 69.2313 -106.9077 -1.36778 -5.74556 40.0556 15.3644 -32.2832 0.0 25.5881 0.0 48.9938 13.0263 14.9427 0.0 0.0 0.0 0.0 0.0 0.0 107.7118 -6.06816 2.20493 -42.9928 27.9801 35.3668 0.0 12.4315 0.0 -37.0722 14.4228 -9.30067 0.0 0.0 0.0 0.0 0.0 0.0 8.19126 11.5499 26.7418 0.0 7.03526 0.0 -15.9217 7.45791 13.0207 0.0 -11.82065 0.0 9.08915 -1.0727 7.82176 0.0 10.5006 0.0 22.3763 9.85276 -31.1416 0.0 -11.96127 0.0 
  -1.6168099975585937 5.420590209960937 10.55530029296875 -107.176 83.9361 -280.959 4.36366 -10.571 -22.6416 -7.087 5.62139 17.3315 48.1128 40.957 -148.182 89.9405 -0.156273 69.2641 -106.85 -1.45326 -5.84432 39.8863 15.3265 -31.7042 0.0 25.318 0.0 49.1045 13.4018 15.1352 0.0 0.0 0.0 0.0 0.0 0.0 107.7426 -6.12194 2.23549 -42.5945 27.9461 35.427 0.0 12.3739 0.0 -37.2064 14.6869 -9.71859 0.0 0.0 0.0 0.0 0.0 0.0 8.62992 11.7565 26.3596 0.0 8.29299 0.0 -16.9621 6.96706 14.0321 0.0 -12.26557 0.0 9.48364 -0.531865 8.69365 0.0 10.2334 0.0 22.1537 9.83293 -30.5883 0.0 -11.70829 0.0 
  -1.7012899780273438 5.422839965820312 10.550899658203125 -105.978 83.8388 -283.579 4.30732 -10.4232 -22.6585 -7.05704 5.75395 17.3555 48.2974 40.9261 -148.257 89.7272 -0.0413414 69.2416 -106.8328 -1.43568 -5.83939 39.6969 15.1383 -31.3722 0.0 25.1645 0.0 48.9605 13.4311 15.3999 0.0 0.0 0.0 0.0 0.0 0.0 107.7903 -6.03303 2.14056 -42.2651 27.7192 35.5472 0.0 12.468 0.0 -37.3886 14.6159 -9.74615 0.0 0.0 0.0 0.0 0.0 0.0 9.1658 11.7646 25.4657 0.0 9.97894 0.0 -18.2212 6.2611704 15.3118 0.0 -12.71585 0.0 9.89804 0.0330389 9.63394 0.0 9.92504 0.0 21.9111 9.92677 -30.1287 0.0 -11.5463 0.0 
  -1.7830000305175782 5.428369750976563 10.548599853515626 -105.284 83.7811 -285.672 4.23311 -10.3005 -22.6737 -7.03306 5.84859 17.3822 48.5463 41.0734 -148.308 89.5626 0.00852578 69.3536 -106.825 -1.48402 -5.90635 39.4957 15.1997 -31.3946 0.0 24.9206 0.0 48.7017 13.377 15.548 0.0 0.0 0.0 0.0 0.0 0.0 107.8019 -5.95189 2.15114 -41.8365 27.635 35.6586 0.0 12.6843 0.0 -37.5206 14.1588 -9.69993 0.0 0.0 0.0 0.0 0.0 0.0 9.69418 11.4836 24.3356 0.0 12.0629 0.0 -19.5435 5.5464897 16.7359 0.0 -13.30111 0.0 10.2622 0.517688 10.515 0.0 9.62808 0.0 21.5301 10.218639 -29.7259 0.0 -11.60284 0.0 
  -1.862030029296875 5.43583984375 10.5472998046875 -104.556 83.8363 -287.802 4.06587 -10.167 -22.666 -7.03244 5.91448 17.4645 48.8446 41.3252 -148.322 89.3125 0.113938 69.7064 -106.8362 -1.49838 -5.88036 39.3945 15.2325 -31.5641 0.0 24.7227 0.0 48.5098 13.1773 15.5592 0.0 0.0 0.0 0.0 0.0 0.0 107.8555 -6.04457 2.1675 -41.5503 27.6408 35.6743 0.0 12.7353 0.0 -37.4233 14.2985 -9.5727 0.0 0.0 0.0 0.0 0.0 0.0 10.0966 11.0259 23.1525 0.0 14.3758 0.0 -21.0209 4.9524 18.139 0.0 -14.061066 0.0 10.4784 0.955928 11.1788 0.0 9.38216 0.0 21.1352 10.474939 -29.0935 0.0 -11.55629 0.0 
  -1.939040069580078 5.446220092773437 10.54780029296875 -104.243 83.9887 -289.531 3.86508 -10.244 -22.7771 -7.16603 6.06611 17.4402 48.7292 42.4572 -147.337 88.7796 -0.0721251 69.9002 -106.7714 -1.59987 -5.97308 39.2172 15.2156 -31.6999 0.0 24.5166 0.0 48.5536 13.1422 15.6185 0.0 0.0 0.0 0.0 0.0 0.0 107.956604 -5.72152 2.0331 -41.3665 27.5549 35.6107 0.0 12.7299 0.0 -37.3562 14.5013 -9.56393 0.0 0.0 0.0 0.0 0.0 0.0 10.4139 10.3518 21.8744 0.0 16.8965 0.0 -22.3336 4.7236996 19.5069 0.0 -15.272252 0.0 10.6121 1.2927 11.7242 0.0 9.14138 0.0 20.5907 10.86809 -28.4907 0.0 -11.61874 0.0 
  -2.0125 5.459349975585938 10.548199462890626 -103.656 84.1829 -291.528 3.58579 -10.1667 -22.7457 -7.17159 6.04248 17.5807 49.0671 43.6862 -146.63 88.1141 -0.101027 70.4416 -106.8739 -1.51692 -5.99735 39.2905 15.3908 -31.9636 0.0 24.3545 0.0 48.5905 13.0788 15.655 0.0 0.0 0.0 0.0 0.0 0.0 108.0179 -5.76477 1.98415 -41.1412 27.4286 35.29 0.0 12.8829 0.0 -37.1866 14.7304 -9.56266 0.0 0.0 0.0 0.0 0.0 0.0 10.6909 9.58064 20.6739 0.0 19.5433 0.0 -23.8105 4.6082 20.6087 0.0 -16.23806 0.0 10.6818 1.62887 12.3552 0.0 8.89237 0.0 20.1092 11.21012 -27.8976 0.0 -11.6966 0.0 
  -2.0835200500488282 5.471619873046875 10.5477001953125 -102.423 84.3672 -294.049 3.26591 -10.0116 -22.6796 -7.18002 6.1092 17.7885 49.4417 44.9849 -145.852 87.156 0.112615 71.5373 -107.0293 -1.62744 -5.99965 39.4834 15.8699 -32.8006 0.0 24.493 0.0 48.4765 13.0894 15.6835 0.0 0.0 0.0 0.0 0.0 0.0 108.062 -6.32545 2.01484 -41.0994 27.4228 35.1266 0.0 13.0118 0.0 -36.9257 15.2288 -9.63081 0.0 0.0 0.0 0.0 0.0 0.0 11.0126 8.72347 19.451 0.0 22.3778 0.0 -25.0259 4.8677998 21.4145 0.0 -17.36289 0.0 10.7165 2.03213 12.9808 0.0 8.64601 0.0 19.7082 11.40177 -27.3475 0.0 -11.63466 0.0 
  -2.149700012207031 5.484340209960937 10.5456005859375 -101.047 84.5455 -296.589 2.94047 -9.85272 -22.6534 -7.16952 6.20783 17.9603 49.9207 46.6231 -144.848 86.0556 0.447358 72.8652 -107.2089 -1.80119 -6.0305 39.6775 16.3534 -33.8471 0.0 25.1086 0.0 48.2969 12.9095 15.5174 0.0 0.0 0.0 0.0 0.0 0.0 108.132996 -6.98813 2.11823 -41.2755 27.3873 34.8815 0.0 13.0711 0.0 -36.7518 15.8142 -9.4207 0.0 0.0 0.0 0.0 0.0 0.0 11.3836 7.68869 18.2698 0.0 25.4158 0.0 -25.9803 5.47025 21.9796 0.0 -18.48777 0.0 10.716 2.41109 13.5399 0.0 8.43398 0.0 19.3586 11.506371 -26.7494 0.0 -11.33667 0.0 
  -2.209600067138672 5.496810302734375 10.543199462890625 -99.4188 84.7382 -299.237 2.57851 -9.70467 -22.6571 -7.1596 6.41712 18.1327 50.6267 48.4274 -143.903 84.9414 0.938648 74.5509 -107.5193 -2.03669 -6.08172 40.1027 16.9014 -34.975 0.0 26.0045 0.0 48.3652 12.9361 15.3497 0.0 0.0 0.0 0.0 0.0 0.0 108.2749 -7.69867 2.27021 -41.6838 27.089 34.6054 0.0 13.2111 0.0 -36.6556 16.4721 -9.40859 0.0 0.0 0.0 0.0 0.0 0.0 11.7495 6.47224 17.0238 0.0 28.5938 0.0 -26.4416 6.49819 22.524 0.0 -19.304699 0.0 10.6552 2.79206 14.2165 0.0 8.24663 0.0 19.0712 11.49885 -26.2344 0.0 -11.20987 0.0 
